<?xml version="1.0" encoding="UTF-8" standalone="no"?>
<!-- Created with Inkscape (http://www.inkscape.org/) -->

<svg
   xmlns:dc="http://purl.org/dc/elements/1.1/"
   xmlns:cc="http://creativecommons.org/ns#"
   xmlns:rdf="http://www.w3.org/1999/02/22-rdf-syntax-ns#"
   xmlns:svg="http://www.w3.org/2000/svg"
   xmlns="http://www.w3.org/2000/svg"
   xmlns:sodipodi="http://sodipodi.sourceforge.net/DTD/sodipodi-0.dtd"
   xmlns:inkscape="http://www.inkscape.org/namespaces/inkscape"
   width="210mm"
   height="297mm"
   viewBox="0 0 210 297"
   version="1.1"
   id="svg8"
   inkscape:version="0.92.2 (5c3e80d, 2017-08-06)"
   sodipodi:docname="dessin.svg">
  <defs
     id="defs2">
    <clipPath
       clipPathUnits="userSpaceOnUse"
       id="clipPath1181">
      <rect
         style="opacity:1;fill:#a11938;fill-opacity:1;stroke:#800000;stroke-width:1.87284744;stroke-linecap:round;stroke-linejoin:round;stroke-miterlimit:4;stroke-dasharray:none;stroke-dashoffset:0;stroke-opacity:1;paint-order:normal"
         id="rect1183"
         width="47.842064"
         height="42.655254"
         x="65.000076"
         y="79.455414"
         ry="2.2571533" />
    </clipPath>
  </defs>
  <sodipodi:namedview
     id="base"
     pagecolor="#ffffff"
     bordercolor="#666666"
     borderopacity="1.0"
     inkscape:pageopacity="0.0"
     inkscape:pageshadow="2"
     inkscape:zoom="2.8"
     inkscape:cx="282.63736"
     inkscape:cy="792.25393"
     inkscape:document-units="mm"
     inkscape:current-layer="layer1"
     showgrid="false"
     inkscape:window-width="3840"
     inkscape:window-height="2050"
     inkscape:window-x="-12"
     inkscape:window-y="-12"
     inkscape:window-maximized="1" />
  <metadata
     id="metadata5">
    <rdf:RDF>
      <cc:Work
         rdf:about="">
        <dc:format>image/svg+xml</dc:format>
        <dc:type
           rdf:resource="http://purl.org/dc/dcmitype/StillImage" />
        <dc:title />
      </cc:Work>
    </rdf:RDF>
  </metadata>
  <g
     inkscape:label="Calque 1"
     inkscape:groupmode="layer"
     id="layer1">
    <path
       style="fill:#a11938;stroke-width:0.26458335"
       d="m 218.67444,40.531832 c -7.36986,0.03512 -6.91792,0.724241 -6.91792,9.471257 0,5.56251 0.0703,6.83369 0.41444,7.49928 0.67444,1.30422 1.69244,1.5534 6.34173,1.5534 2.33883,0 4.34845,0.11866 4.63848,0.27388 0.41764,0.22352 0.5116,0.56247 0.5116,1.84278 0,1.32137 -0.087,1.61589 -0.55346,1.86552 -0.87622,0.46894 -1.75924,0.10543 -1.95957,-0.80667 l -0.17466,-0.79426 h -4.60902 -4.60954 v 3.188431 c 0,4.24605 0.42082,5.050829 2.91041,5.568659 0.50933,0.10595 4.25979,0.17356 8.33438,0.14986 10.42581,-0.0607 9.98414,0.29695 10.13995,-8.2057 0.12561,-6.85435 -0.0148,-8.13774 -1.01079,-9.2537 l -0.74931,-0.840262 -4.80694,-0.132291 c -5.41721,-0.14909 -5.55729,-0.203753 -5.55729,-2.184363 0,-1.41763 0.39428,-2.048971 1.27951,-2.048971 0.89097,0 1.36633,0.433073 1.36633,1.243852 v 0.608232 h 4.78989 4.78988 l -0.0935,-3.28817 c -0.08,-2.818321 -0.17162,-3.394808 -0.6413,-4.034896 -1.17826,-1.605722 -1.5807,-1.671791 -10.17147,-1.672252 -1.39623,-7.1e-5 -2.60896,-0.0086 -3.66179,-0.0036 z m 17.15916,0.0036 v 3.571875 3.571875 h 4.7625 4.7625 v -3.571875 -3.571875 h -4.7625 z m 12.17083,0 v 3.571875 3.571875 h 4.63021 4.63021 v -3.571875 -3.571875 h -4.63021 z m 12.17084,0 v 14.948957 14.94896 h 4.63021 4.63072 v -6.60839 -6.60838 l 4.56407,-0.0723 4.56406,-0.0724 0.0734,-3.49953 0.0739,-3.499523 -4.57182,-0.07235 -4.57129,-0.07235 -0.0816,-1.124479 -0.0811,-1.12448 h 4.6452 4.64571 v -3.571875 -3.571875 h -9.26093 z m -24.34167,9.260417 v 10.14201 c 0,5.578301 0.0821,10.22411 0.18242,10.32444 l 5.2e-4,5.1e-4 c 0.10033,0.10025 2.21369,0.14978 4.69635,0.11008 l 4.51394,-0.0718 0.0692,-10.2526 0.0692,-10.2526 h -4.7656 z m 12.17083,0 v 10.31875 10.31875 h 4.63021 4.63021 V 60.114619 49.795865 h -4.63021 z"
       id="path826"
       inkscape:connector-curvature="0" />
    <g
       id="g4855"
       inkscape:export-xdpi="96"
       inkscape:export-ydpi="96">
      <rect
         ry="2.2571533"
         y="79.455421"
         x="65.000076"
         height="42.655254"
         width="47.842064"
         id="rect833"
         style="opacity:1;fill:#a11938;fill-opacity:1;stroke:#800000;stroke-width:1.87284732;stroke-linecap:round;stroke-linejoin:round;stroke-miterlimit:4;stroke-dasharray:none;stroke-dashoffset:0;stroke-opacity:1;paint-order:normal" />
      <rect
         ry="0"
         y="81.046951"
         x="66.870293"
         height="9.92202"
         width="9.0472622"
         id="rect852-3"
         style="opacity:1;fill:#aa1033;fill-opacity:1;stroke:none;stroke-width:0.46712506;stroke-linecap:round;stroke-linejoin:round;stroke-miterlimit:4;stroke-dasharray:none;stroke-dashoffset:0;stroke-opacity:1;paint-order:normal" />
      <rect
         ry="0"
         y="90.968971"
         x="66.332336"
         height="9.92202"
         width="9.0472622"
         id="rect852-3-9-6"
         style="opacity:1;fill:#9d1d3a;fill-opacity:1;stroke:none;stroke-width:0.46712506;stroke-linecap:round;stroke-linejoin:round;stroke-miterlimit:4;stroke-dasharray:none;stroke-dashoffset:0;stroke-opacity:1;paint-order:normal" />
      <rect
         ry="0"
         y="81.046951"
         x="75.379601"
         height="9.92202"
         width="9.0472622"
         id="rect852-3-9-6-6"
         style="opacity:1;fill:#b1092f;fill-opacity:1;stroke:none;stroke-width:0.46712506;stroke-linecap:round;stroke-linejoin:round;stroke-miterlimit:4;stroke-dasharray:none;stroke-dashoffset:0;stroke-opacity:1;paint-order:normal" />
      <rect
         ry="0"
         y="90.968971"
         x="75.379601"
         height="9.92202"
         width="9.0472622"
         id="rect852-3-9-6-6-4"
         style="opacity:1;fill:#a61435;fill-opacity:1;stroke:none;stroke-width:0.46712506;stroke-linecap:round;stroke-linejoin:round;stroke-miterlimit:4;stroke-dasharray:none;stroke-dashoffset:0;stroke-opacity:1;paint-order:normal" />
      <rect
         ry="0"
         y="81.046951"
         x="84.426857"
         height="9.92202"
         width="9.0472622"
         id="rect852-3-9-6-6-4-1"
         style="opacity:1;fill:#a61435;fill-opacity:1;stroke:none;stroke-width:0.46712506;stroke-linecap:round;stroke-linejoin:round;stroke-miterlimit:4;stroke-dasharray:none;stroke-dashoffset:0;stroke-opacity:1;paint-order:normal" />
      <rect
         ry="0"
         y="90.968971"
         x="84.426857"
         height="9.92202"
         width="9.0472622"
         id="rect852-3-9-6-6-4-1-3"
         style="opacity:1;fill:#ad0d31;fill-opacity:1;stroke:none;stroke-width:0.46712506;stroke-linecap:round;stroke-linejoin:round;stroke-miterlimit:4;stroke-dasharray:none;stroke-dashoffset:0;stroke-opacity:1;paint-order:normal" />
      <rect
         ry="0"
         y="81.046951"
         x="93.474121"
         height="9.92202"
         width="9.0472622"
         id="rect852-3-9-6-6-4-1-3-7"
         style="opacity:1;fill:#ae0c31;fill-opacity:1;stroke:none;stroke-width:0.46712506;stroke-linecap:round;stroke-linejoin:round;stroke-miterlimit:4;stroke-dasharray:none;stroke-dashoffset:0;stroke-opacity:1;paint-order:normal" />
      <rect
         ry="0"
         y="90.968971"
         x="93.474121"
         height="9.92202"
         width="9.0472622"
         id="rect852-3-9-6-6-4-1-3-7-8"
         style="opacity:1;fill:#a61435;fill-opacity:1;stroke:none;stroke-width:0.46712506;stroke-linecap:round;stroke-linejoin:round;stroke-miterlimit:4;stroke-dasharray:none;stroke-dashoffset:0;stroke-opacity:1;paint-order:normal" />
      <rect
         ry="0"
         y="81.046951"
         x="102.52138"
         height="9.92202"
         width="9.0472622"
         id="rect852-3-9-6-6-4-1-3-7-8-7"
         style="opacity:1;fill:#9b1f3b;fill-opacity:1;stroke:none;stroke-width:0.46712506;stroke-linecap:round;stroke-linejoin:round;stroke-miterlimit:4;stroke-dasharray:none;stroke-dashoffset:0;stroke-opacity:1;paint-order:normal" />
      <rect
         ry="0"
         y="90.968971"
         x="102.52138"
         height="9.92202"
         width="9.0472622"
         id="rect852-3-9-6-6-4-1-3-7-8-7-6"
         style="opacity:1;fill:#b2082f;fill-opacity:1;stroke:none;stroke-width:0.46712506;stroke-linecap:round;stroke-linejoin:round;stroke-miterlimit:4;stroke-dasharray:none;stroke-dashoffset:0;stroke-opacity:1;paint-order:normal" />
      <rect
         ry="0"
         y="100.89098"
         x="66.332336"
         height="9.92202"
         width="9.0472622"
         id="rect852-3-2"
         style="opacity:1;fill:#aa1033;fill-opacity:1;stroke:none;stroke-width:0.46712506;stroke-linecap:round;stroke-linejoin:round;stroke-miterlimit:4;stroke-dasharray:none;stroke-dashoffset:0;stroke-opacity:1;paint-order:normal" />
      <rect
         ry="0"
         y="110.813"
         x="66.332336"
         height="9.92202"
         width="9.0472622"
         id="rect852-3-9-6-4"
         style="opacity:1;fill:#ac0e32;fill-opacity:1;stroke:none;stroke-width:0.46712506;stroke-linecap:round;stroke-linejoin:round;stroke-miterlimit:4;stroke-dasharray:none;stroke-dashoffset:0;stroke-opacity:1;paint-order:normal" />
      <rect
         ry="0"
         y="100.89098"
         x="75.379601"
         height="9.92202"
         width="9.0472622"
         id="rect852-3-9-6-6-9"
         style="opacity:1;fill:#b1092f;fill-opacity:1;stroke:none;stroke-width:0.46712506;stroke-linecap:round;stroke-linejoin:round;stroke-miterlimit:4;stroke-dasharray:none;stroke-dashoffset:0;stroke-opacity:1;paint-order:normal" />
      <rect
         ry="0"
         y="110.813"
         x="75.379601"
         height="9.92202"
         width="9.0472622"
         id="rect852-3-9-6-6-4-7"
         style="opacity:1;fill:#a61435;fill-opacity:1;stroke:none;stroke-width:0.46712506;stroke-linecap:round;stroke-linejoin:round;stroke-miterlimit:4;stroke-dasharray:none;stroke-dashoffset:0;stroke-opacity:1;paint-order:normal" />
      <rect
         ry="0"
         y="100.89098"
         x="84.426857"
         height="9.92202"
         width="9.0472622"
         id="rect852-3-9-6-6-4-1-2"
         style="opacity:1;fill:#a61435;fill-opacity:1;stroke:none;stroke-width:0.46712506;stroke-linecap:round;stroke-linejoin:round;stroke-miterlimit:4;stroke-dasharray:none;stroke-dashoffset:0;stroke-opacity:1;paint-order:normal" />
      <rect
         ry="0"
         y="110.813"
         x="84.426857"
         height="9.92202"
         width="9.0472622"
         id="rect852-3-9-6-6-4-1-3-4"
         style="opacity:1;fill:#b1092f;fill-opacity:1;stroke:none;stroke-width:0.46712506;stroke-linecap:round;stroke-linejoin:round;stroke-miterlimit:4;stroke-dasharray:none;stroke-dashoffset:0;stroke-opacity:1;paint-order:normal" />
      <rect
         ry="0"
         y="100.89098"
         x="93.474121"
         height="9.92202"
         width="9.0472622"
         id="rect852-3-9-6-6-4-1-3-7-0"
         style="opacity:1;fill:#9f1b39;fill-opacity:1;stroke:none;stroke-width:0.46712506;stroke-linecap:round;stroke-linejoin:round;stroke-miterlimit:4;stroke-dasharray:none;stroke-dashoffset:0;stroke-opacity:1;paint-order:normal" />
      <rect
         ry="0"
         y="110.813"
         x="93.474121"
         height="9.92202"
         width="9.0472622"
         id="rect852-3-9-6-6-4-1-3-7-8-6"
         style="opacity:1;fill:#a41636;fill-opacity:1;stroke:none;stroke-width:0.46712506;stroke-linecap:round;stroke-linejoin:round;stroke-miterlimit:4;stroke-dasharray:none;stroke-dashoffset:0;stroke-opacity:1;paint-order:normal" />
      <rect
         ry="0"
         y="100.89098"
         x="102.52138"
         height="9.92202"
         width="9.0472622"
         id="rect852-3-9-6-6-4-1-3-7-8-7-3"
         style="opacity:1;fill:#ae0c31;fill-opacity:1;stroke:none;stroke-width:0.46712506;stroke-linecap:round;stroke-linejoin:round;stroke-miterlimit:4;stroke-dasharray:none;stroke-dashoffset:0;stroke-opacity:1;paint-order:normal" />
      <rect
         ry="0"
         y="110.813"
         x="102.52138"
         height="9.92202"
         width="9.0472622"
         id="rect852-3-9-6-6-4-1-3-7-8-7-6-7"
         style="opacity:1;fill:#98223d;fill-opacity:1;stroke:none;stroke-width:0.46712506;stroke-linecap:round;stroke-linejoin:round;stroke-miterlimit:4;stroke-dasharray:none;stroke-dashoffset:0;stroke-opacity:1;paint-order:normal" />
      <path
         inkscape:connector-curvature="0"
         id="path826-5"
         d="m 70.40372,81.295417 c -3.6317,0.0173 -3.40858,0.35709 -3.40858,4.66741 0,2.74108 0.0345,3.3674 0.20412,3.69539 0.33235,0.64268 0.83381,0.76532 3.12488,0.76532 1.15251,0 2.14272,0.0584 2.28564,0.13488 0.20581,0.11014 0.25219,0.27705 0.25219,0.90795 0,0.65114 -0.043,0.79632 -0.27286,0.91933 -0.43178,0.23108 -0.86659,0.0521 -0.96531,-0.39739 l -0.0863,-0.3912 h -2.27118 -2.27118 v 1.57097 c 0,2.09235 0.20721,2.48884 1.43402,2.74402 0.25099,0.0522 2.09886,0.0856 4.10673,0.0739 5.13759,-0.0299 4.92033,0.14622 4.99711,-4.04369 0.0619,-3.37765 -0.007,-4.01 -0.49816,-4.55992 l -0.36949,-0.41393 -2.36885,-0.0651 c -2.66947,-0.0735 -2.73833,-0.10042 -2.73833,-1.07642 0,-0.69858 0.19423,-1.00976 0.63045,-1.00976 0.43905,0 0.67335,0.21335 0.67335,0.61288 v 0.29973 h 2.36057 2.36007 l -0.046,-1.62006 c -0.0394,-1.3888 -0.0848,-1.67309 -0.31626,-1.98851 -0.58062,-0.79126 -0.77877,-0.82401 -5.0121,-0.82424 -0.68803,-3e-5 -1.28573,-0.004 -1.80454,-0.002 z"
         style="fill:#ffffff;fill-opacity:1;stroke:none;stroke-width:0.13038044" />
      <path
         inkscape:connector-curvature="0"
         id="path826-1"
         d="m 78.105776,86.847592 v 1.044022 1.044022 h 1.44861 1.448817 v -1.044022 -1.044022 h -1.448817 z m 3.70221,0 v 1.044022 1.044022 h 1.408266 1.408474 v -1.044022 -1.044022 h -1.408474 z m 3.702001,0 v 4.369507 4.369506 h 1.408268 1.408472 v -1.9316 -1.931599 l 1.388303,-0.02107 1.388303,-0.02127 0.02225,-1.022752 0.02265,-1.022951 -1.390797,-0.02107 -1.390381,-0.02127 -0.02474,-0.328594 -0.02475,-0.328791 h 1.413048 1.413048 v -1.04402 -1.044021 h -2.816944 z m -7.404211,2.706864 v 2.964291 c 0,1.630482 0.02501,2.988438 0.05553,3.017764 l 2.09e-4,1.99e-4 c 0.03052,0.0293 0.673282,0.04381 1.428437,0.0322 l 1.373123,-0.02107 0.021,-2.996694 0.021,-2.996692 h -1.449439 z m 3.70221,0 v 3.015976 3.016173 h 1.408266 1.408474 v -3.016173 -3.015976 h -1.408474 z"
         style="fill:#ffffff;stroke-width:0.07889129" />
      <rect
         ry="0"
         y="99.956833"
         x="72.368637"
         height="18.348177"
         width="0.61755097"
         id="rect4555"
         style="opacity:1;fill:#ffffff;fill-opacity:1;stroke:#ffff00;stroke-width:0.17380542;stroke-linecap:square;stroke-linejoin:miter;stroke-miterlimit:4;stroke-dasharray:none;stroke-dashoffset:0;stroke-opacity:0.76470588;paint-order:stroke fill markers" />
      <rect
         ry="0"
         y="99.977264"
         x="74.029289"
         height="18.307312"
         width="0.94418234"
         id="rect4555-7"
         style="opacity:1;fill:#ffffff;fill-opacity:1;stroke:#ffff00;stroke-width:0.21466966;stroke-linecap:square;stroke-linejoin:miter;stroke-miterlimit:4;stroke-dasharray:none;stroke-dashoffset:0;stroke-opacity:0.76470588;paint-order:stroke fill markers" />
      <rect
         ry="0"
         y="99.927948"
         x="76.188141"
         height="18.405941"
         width="0.27441138"
         id="rect4555-7-0"
         style="opacity:1;fill:#ffffff;fill-opacity:1;stroke:#ffff00;stroke-width:0.11604075;stroke-linecap:square;stroke-linejoin:miter;stroke-miterlimit:4;stroke-dasharray:none;stroke-dashoffset:0;stroke-opacity:0.76470588;paint-order:stroke fill markers" />
      <rect
         ry="0"
         y="99.927948"
         x="78.012108"
         height="18.405943"
         width="0.27441138"
         id="rect4555-7-0-2"
         style="opacity:1;fill:#ffffff;fill-opacity:1;stroke:#ffff00;stroke-width:0.11604075;stroke-linecap:square;stroke-linejoin:miter;stroke-miterlimit:4;stroke-dasharray:none;stroke-dashoffset:0;stroke-opacity:0.76470588;paint-order:stroke fill markers" />
      <rect
         ry="0"
         y="99.977264"
         x="74.029289"
         height="18.307312"
         width="0.94418234"
         id="rect4555-7-8"
         style="opacity:1;fill:#ffffff;fill-opacity:1;stroke:#ffff00;stroke-width:0.21466967;stroke-linecap:square;stroke-linejoin:miter;stroke-miterlimit:4;stroke-dasharray:none;stroke-dashoffset:0;stroke-opacity:0.76470588;paint-order:stroke fill markers" />
      <rect
         ry="0"
         y="99.956833"
         x="79.664505"
         height="18.348177"
         width="0.61755097"
         id="rect4555-3"
         style="opacity:1;fill:#ffffff;fill-opacity:1;stroke:#ffff00;stroke-width:0.17380542;stroke-linecap:square;stroke-linejoin:miter;stroke-miterlimit:4;stroke-dasharray:none;stroke-dashoffset:0;stroke-opacity:0.76470588;paint-order:stroke fill markers" />
      <rect
         ry="0"
         y="99.956833"
         x="81.488464"
         height="18.348177"
         width="0.61755097"
         id="rect4555-5"
         style="opacity:1;fill:#ffffff;fill-opacity:1;stroke:#ffff00;stroke-width:0.17380542;stroke-linecap:square;stroke-linejoin:miter;stroke-miterlimit:4;stroke-dasharray:none;stroke-dashoffset:0;stroke-opacity:0.76470588;paint-order:stroke fill markers" />
      <rect
         ry="0"
         y="99.956833"
         x="85.136398"
         height="18.348177"
         width="0.61755097"
         id="rect4555-4"
         style="opacity:1;fill:#ffffff;fill-opacity:1;stroke:#ffff00;stroke-width:0.17380542;stroke-linecap:square;stroke-linejoin:miter;stroke-miterlimit:4;stroke-dasharray:none;stroke-dashoffset:0;stroke-opacity:0.76470588;paint-order:stroke fill markers" />
      <rect
         ry="0"
         y="99.927948"
         x="83.484009"
         height="18.405943"
         width="0.27441138"
         id="rect4555-7-0-4"
         style="opacity:1;fill:#ffffff;fill-opacity:1;stroke:#ffff00;stroke-width:0.11604075;stroke-linecap:square;stroke-linejoin:miter;stroke-miterlimit:4;stroke-dasharray:none;stroke-dashoffset:0;stroke-opacity:0.76470588;paint-order:stroke fill markers" />
      <rect
         ry="0"
         y="99.927948"
         x="87.131943"
         height="18.405945"
         width="0.27441138"
         id="rect4555-7-0-4-2"
         style="opacity:1;fill:#ffffff;fill-opacity:1;stroke:#ffff00;stroke-width:0.11604075;stroke-linecap:square;stroke-linejoin:miter;stroke-miterlimit:4;stroke-dasharray:none;stroke-dashoffset:0;stroke-opacity:0.76470588;paint-order:stroke fill markers" />
      <rect
         ry="0"
         y="99.927948"
         x="88.95591"
         height="18.405945"
         width="0.27441138"
         id="rect4555-7-0-4-2-9"
         style="opacity:1;fill:#ffffff;fill-opacity:1;stroke:#ffff00;stroke-width:0.11604075;stroke-linecap:square;stroke-linejoin:miter;stroke-miterlimit:4;stroke-dasharray:none;stroke-dashoffset:0;stroke-opacity:0.76470588;paint-order:stroke fill markers" />
      <rect
         ry="0"
         y="99.977264"
         x="92.268959"
         height="18.307312"
         width="0.94418234"
         id="rect4555-7-8-3"
         style="opacity:1;fill:#ffffff;fill-opacity:1;stroke:#ffff00;stroke-width:0.21466969;stroke-linecap:square;stroke-linejoin:miter;stroke-miterlimit:4;stroke-dasharray:none;stroke-dashoffset:0;stroke-opacity:0.76470588;paint-order:stroke fill markers" />
      <rect
         ry="0"
         y="99.956833"
         x="90.608307"
         height="18.348177"
         width="0.61755097"
         id="rect4555-9"
         style="opacity:1;fill:#ffffff;fill-opacity:1;stroke:#ffff00;stroke-width:0.17380542;stroke-linecap:square;stroke-linejoin:miter;stroke-miterlimit:4;stroke-dasharray:none;stroke-dashoffset:0;stroke-opacity:0.76470588;paint-order:stroke fill markers" />
      <rect
         ry="0"
         y="99.956833"
         x="94.256248"
         height="18.348177"
         width="0.61755097"
         id="rect4555-9-4"
         style="opacity:1;fill:#ffffff;fill-opacity:1;stroke:#ffff00;stroke-width:0.17380542;stroke-linecap:square;stroke-linejoin:miter;stroke-miterlimit:4;stroke-dasharray:none;stroke-dashoffset:0;stroke-opacity:0.76470588;paint-order:stroke fill markers" />
      <rect
         ry="0"
         y="99.956833"
         x="96.080215"
         height="18.348177"
         width="0.61755097"
         id="rect4555-9-9"
         style="opacity:1;fill:#ffffff;fill-opacity:1;stroke:#ffff00;stroke-width:0.17380542;stroke-linecap:square;stroke-linejoin:miter;stroke-miterlimit:4;stroke-dasharray:none;stroke-dashoffset:0;stroke-opacity:0.76470588;paint-order:stroke fill markers" />
      <rect
         ry="0"
         y="99.956833"
         x="97.904175"
         height="18.348177"
         width="0.61755097"
         id="rect4555-9-6"
         style="opacity:1;fill:#ffffff;fill-opacity:1;stroke:#ffff00;stroke-width:0.17380542;stroke-linecap:square;stroke-linejoin:miter;stroke-miterlimit:4;stroke-dasharray:none;stroke-dashoffset:0;stroke-opacity:0.76470588;paint-order:stroke fill markers" />
      <rect
         ry="0"
         y="99.956833"
         x="99.728142"
         height="18.348177"
         width="0.61755097"
         id="rect4555-9-7"
         style="opacity:1;fill:#ffffff;fill-opacity:1;stroke:#ffff00;stroke-width:0.17380542;stroke-linecap:square;stroke-linejoin:miter;stroke-miterlimit:4;stroke-dasharray:none;stroke-dashoffset:0;stroke-opacity:0.76470588;paint-order:stroke fill markers" />
      <rect
         ry="0"
         y="99.977264"
         x="105.03673"
         height="18.307312"
         width="0.94418234"
         id="rect4555-7-8-9"
         style="opacity:1;fill:#ffffff;fill-opacity:1;stroke:#ffff00;stroke-width:0.21466969;stroke-linecap:square;stroke-linejoin:miter;stroke-miterlimit:4;stroke-dasharray:none;stroke-dashoffset:0;stroke-opacity:0.76470588;paint-order:stroke fill markers" />
      <rect
         ry="0"
         y="99.956833"
         x="101.55211"
         height="18.348177"
         width="0.61755097"
         id="rect4555-9-7-0"
         style="opacity:1;fill:#ffffff;fill-opacity:1;stroke:#ffff00;stroke-width:0.17380542;stroke-linecap:square;stroke-linejoin:miter;stroke-miterlimit:4;stroke-dasharray:none;stroke-dashoffset:0;stroke-opacity:0.76470588;paint-order:stroke fill markers" />
      <rect
         ry="0"
         y="99.927948"
         x="103.54765"
         height="18.405945"
         width="0.27441138"
         id="rect4555-7-0-2-1"
         style="opacity:1;fill:#ffffff;fill-opacity:1;stroke:#ffff00;stroke-width:0.11604075;stroke-linecap:square;stroke-linejoin:miter;stroke-miterlimit:4;stroke-dasharray:none;stroke-dashoffset:0;stroke-opacity:0.76470588;paint-order:stroke fill markers" />
    </g>
  </g>
</svg>
